# Blender 3.4.1
# www.blender.org
mtllib ball_cube.mtl
o Outside_ball_cube
v -1.483696 0.629898 0.018242
v -1.410730 0.629898 0.091208
v -1.410730 0.556932 0.018242
v -1.447213 0.593415 0.054725
v -1.447213 0.629898 0.054725
v -1.447213 0.593415 0.018242
v -1.447213 0.629898 0.018242
v -1.410730 0.593415 0.054725
v -1.410730 0.629898 0.054725
v -1.410730 0.593415 0.018242
v -1.483696 0.666382 0.018242
v -1.410730 0.666382 0.091208
v -1.447213 0.666382 0.054725
v -1.447213 0.702865 0.054725
v -1.447213 0.666382 0.018242
v -1.447213 0.702865 0.018242
v -1.410730 0.666382 0.054725
v -1.410730 0.702865 0.054725
v -1.410730 0.702865 0.018242
v -1.410730 0.739348 0.018242
v -1.483696 0.629898 -0.018241
v -1.410730 0.556932 -0.018241
v -1.447213 0.593415 -0.018241
v -1.447213 0.629898 -0.018241
v -1.447213 0.593415 -0.054725
v -1.447213 0.629898 -0.054725
v -1.410730 0.593415 -0.018241
v -1.410730 0.593415 -0.054725
v -1.410730 0.629898 -0.054725
v -1.410730 0.629898 -0.091208
v -1.483696 0.666382 -0.018241
v -1.447213 0.666382 -0.018241
v -1.447213 0.702865 -0.018241
v -1.447213 0.666382 -0.054725
v -1.447213 0.702865 -0.054725
v -1.410730 0.702865 -0.018241
v -1.410730 0.666382 -0.054725
v -1.410730 0.702865 -0.054725
v -1.410730 0.739348 -0.018241
v -1.410730 0.666382 -0.091208
v -1.374247 0.629898 0.091208
v -1.374247 0.556932 0.018242
v -1.374247 0.593415 0.054725
v -1.374247 0.629898 0.054725
v -1.374247 0.593415 0.018242
v -1.337764 0.593415 0.054725
v -1.337764 0.629898 0.054725
v -1.337764 0.593415 0.018242
v -1.337764 0.629898 0.018242
v -1.301281 0.629898 0.018242
v -1.374247 0.666382 0.091208
v -1.374247 0.666382 0.054725
v -1.374247 0.702865 0.054725
v -1.374247 0.702865 0.018242
v -1.337764 0.666382 0.054725
v -1.337764 0.702865 0.054725
v -1.337764 0.666382 0.018242
v -1.337764 0.702865 0.018242
v -1.374247 0.739348 0.018242
v -1.301281 0.666382 0.018242
v -1.374247 0.556932 -0.018241
v -1.374247 0.593415 -0.018241
v -1.374247 0.593415 -0.054725
v -1.374247 0.629898 -0.054725
v -1.337764 0.593415 -0.018241
v -1.337764 0.629898 -0.018241
v -1.337764 0.593415 -0.054725
v -1.337764 0.629898 -0.054725
v -1.374247 0.629898 -0.091208
v -1.301281 0.629898 -0.018241
v -1.374247 0.702865 -0.018241
v -1.374247 0.666382 -0.054725
v -1.374247 0.702865 -0.054725
v -1.337764 0.666382 -0.018241
v -1.337764 0.702865 -0.018241
v -1.337764 0.666382 -0.054725
v -1.337764 0.702865 -0.054725
v -1.374247 0.739348 -0.018241
v -1.374247 0.666382 -0.091208
v -1.301281 0.666382 -0.018241
vn -1.0000 -0.0000 -0.0000
vn -0.0000 -0.0000 1.0000
vn -0.0000 -1.0000 -0.0000
vn -0.0000 1.0000 -0.0000
vn -0.0000 -0.0000 -1.0000
vn 1.0000 -0.0000 -0.0000
s 0
usemtl outside_cube
f 4//1 5//1 7//1 6//1
f 4//2 8//2 9//2 5//2
f 4//3 6//3 10//3 8//3
f 13//1 14//1 16//1 15//1
f 13//2 17//2 18//2 14//2
f 18//4 19//4 16//4 14//4
f 23//1 24//1 26//1 25//1
f 26//5 29//5 28//5 25//5
f 23//3 25//3 28//3 27//3
f 32//1 33//1 35//1 34//1
f 35//5 38//5 37//5 34//5
f 36//4 38//4 35//4 33//4
f 48//6 49//6 47//6 46//6
f 43//2 46//2 47//2 44//2
f 43//3 45//3 48//3 46//3
f 57//6 58//6 56//6 55//6
f 52//2 55//2 56//2 53//2
f 56//4 58//4 54//4 53//4
f 67//6 68//6 66//6 65//6
f 64//5 68//5 67//5 63//5
f 62//3 63//3 67//3 65//3
f 76//6 77//6 75//6 74//6
f 73//5 77//5 76//5 72//5
f 75//4 77//4 73//4 71//4
f 8//2 43//2 44//2 9//2
f 8//3 10//3 45//3 43//3
f 3//2 42//2 45//2 10//2
f 2//3 9//3 44//3 41//3
f 17//2 52//2 53//2 18//2
f 53//4 54//4 19//4 18//4
f 19//2 54//2 59//2 20//2
f 51//4 52//4 17//4 12//4
f 29//5 64//5 63//5 28//5
f 27//3 28//3 63//3 62//3
f 27//5 62//5 61//5 22//5
f 29//3 30//3 69//3 64//3
f 38//5 73//5 72//5 37//5
f 71//4 73//4 38//4 36//4
f 39//5 78//5 71//5 36//5
f 72//4 79//4 40//4 37//4
f 6//1 7//1 24//1 23//1
f 6//3 23//3 27//3 10//3
f 3//1 10//1 27//1 22//1
f 1//3 21//3 24//3 7//3
f 65//6 66//6 49//6 48//6
f 45//3 62//3 65//3 48//3
f 61//6 62//6 45//6 42//6
f 49//3 66//3 70//3 50//3
f 15//1 16//1 33//1 32//1
f 19//4 36//4 33//4 16//4
f 19//1 20//1 39//1 36//1
f 15//4 32//4 31//4 11//4
f 74//6 75//6 58//6 57//6
f 58//4 75//4 71//4 54//4
f 71//6 78//6 59//6 54//6
f 60//4 80//4 74//4 57//4
f 5//1 13//1 15//1 7//1
f 5//2 9//2 17//2 13//2
f 2//1 12//1 17//1 9//1
f 1//2 7//2 15//2 11//2
f 24//1 32//1 34//1 26//1
f 34//5 37//5 29//5 26//5
f 29//1 37//1 40//1 30//1
f 31//5 32//5 24//5 21//5
f 49//6 57//6 55//6 47//6
f 44//2 47//2 55//2 52//2
f 44//6 52//6 51//6 41//6
f 49//2 50//2 60//2 57//2
f 68//6 76//6 74//6 66//6
f 72//5 76//5 68//5 64//5
f 69//6 79//6 72//6 64//6
f 74//5 80//5 70//5 66//5
f 1//1 11//1 31//1 21//1
f 70//6 80//6 60//6 50//6
f 2//2 41//2 51//2 12//2
f 40//5 79//5 69//5 30//5
f 3//3 22//3 61//3 42//3
f 59//4 78//4 39//4 20//4
