# Blender 3.4.1
# www.blender.org
mtllib pyramide.mtl
o Cone
v 0.000000 -0.980632 -0.953903
v 0.000000 -1.019368 -1.046097
v 0.826105 -0.980632 0.476952
v 0.905946 -1.019368 0.523048
v -0.826105 -0.980632 0.476952
v -0.905946 -1.019368 0.523048
v 0.000000 0.950000 0.000000
v 0.000000 1.050000 0.000000
v 0.027116 -0.951493 -0.928780
v 0.027116 0.874755 -0.015656
v 0.817905 -0.951493 0.440906
v 0.000000 -1.000000 -0.900000
v 0.779423 -1.000000 0.450000
v -0.779423 -1.000000 0.450000
v 0.790789 -0.951493 0.487873
v 0.000000 0.874755 0.031311
v -0.790789 -0.951493 0.487873
v -0.817905 -0.951493 0.440906
v -0.027116 0.874755 -0.015656
v -0.027116 -0.951493 -0.928780
vn -0.4715 -0.3925 0.7897
vn 0.9317 0.1632 -0.3246
vn -0.9197 -0.3925 0.0135
vn 0.7469 0.1632 -0.6445
vn -0.8109 0.3510 0.4682
vn 0.7689 0.4601 -0.4439
vn -0.5054 0.8121 0.2918
vn -0.2219 -0.9666 0.1281
vn -0.0000 0.8121 -0.5836
vn -0.0000 -0.9666 -0.2563
vn 0.5054 0.8121 0.2918
vn 0.2219 -0.9666 0.1281
vn -0.4482 -0.3925 -0.8032
vn -0.1847 0.1632 0.9691
vn 0.4482 -0.3925 -0.8032
vn 0.1847 0.1632 0.9691
vn -0.0000 0.3510 -0.9364
vn -0.0000 0.4601 0.8879
vn 0.9197 -0.3925 0.0135
vn -0.7469 0.1632 -0.6445
vn 0.4715 -0.3925 0.7897
vn -0.9317 0.1632 -0.3246
vn 0.8109 0.3510 0.4682
vn -0.7689 0.4601 -0.4439
vt 0.750000 0.490000
vt 0.250000 0.490000
vt 0.750000 0.490000
vt 0.250000 0.490000
vt 0.957846 0.130000
vt 0.457846 0.130000
vt 0.957846 0.130000
vt 0.457846 0.130000
vt 0.542154 0.130000
vt 0.042154 0.130000
vt 0.542154 0.130000
vt 0.042154 0.130000
vt 0.250000 0.250000
vt 0.250000 0.250000
vt 0.250000 0.490000
vt 0.250000 0.250000
vt 0.457846 0.130000
vt 0.750000 0.490000
vt 0.957846 0.130000
vt 0.542154 0.130000
vt 0.457846 0.130000
vt 0.250000 0.250000
vt 0.042154 0.130000
vt 0.042154 0.130000
vt 0.250000 0.250000
vt 0.250000 0.490000
s 0
f 9/15/1 10/16/1 7/13/1 1/2/1
f 10/16/2 9/15/2 2/4/2 8/14/2
f 10/16/3 11/17/3 3/6/3 7/13/3
f 11/17/4 10/16/4 8/14/4 4/8/4
f 11/17/5 9/15/5 1/2/5 3/6/5
f 9/15/6 11/17/6 4/8/6 2/4/6
f 12/18/7 13/19/7 3/5/7 1/1/7
f 13/19/8 12/18/8 2/3/8 4/7/8
f 13/19/9 14/20/9 5/9/9 3/5/9
f 14/20/10 13/19/10 4/7/10 6/11/10
f 14/20/11 12/18/11 1/1/11 5/9/11
f 12/18/12 14/20/12 6/11/12 2/3/12
f 15/21/13 16/22/13 7/13/13 3/6/13
f 16/22/14 15/21/14 4/8/14 8/14/14
f 16/22/15 17/23/15 5/10/15 7/13/15
f 17/23/16 16/22/16 8/14/16 6/12/16
f 17/23/17 15/21/17 3/6/17 5/10/17
f 15/21/18 17/23/18 6/12/18 4/8/18
f 18/24/19 19/25/19 7/13/19 5/10/19
f 19/25/20 18/24/20 6/12/20 8/14/20
f 19/25/21 20/26/21 1/2/21 7/13/21
f 20/26/22 19/25/22 8/14/22 2/4/22
f 20/26/23 18/24/23 5/10/23 1/2/23
f 18/24/24 20/26/24 2/4/24 6/12/24
